<svg version="1.1"
     id="svg434"
     width="877.33331"
     height="833.33331"
     viewBox="0 0 877.33331 833.33331"
     xmlns="http://www.w3.org/2000/svg">
    <defs id="defs438"/>
    <g id="g440">
        <path
                style="fill:#1c1e20;stroke-width:0.666667"
                d="m 476.13561,804.12174 c 3.3,-0.4141 8.4,-1.0503 11.3333,-1.4137 18.3114,-2.2688 41.3284,-7.186 59,-12.6043 2.3833,-0.7307 5.9833,-1.8165 8,-2.4129 2.0167,-0.5964 4.2667,-1.3469 5,-1.6679 0.7333,-0.3209 2.6833,-1.0302 4.3333,-1.5762 7.8134,-2.5852 17.9372,-6.5445 25.3334,-9.9074 1.65,-0.7502 3.6,-1.6043 4.3333,-1.898 2.2756,-0.9113 25.1491,-12.3098 28.6667,-14.2855 3.3749,-1.8955 11.5542,-6.6598 14,-8.1547 0.7333,-0.4483 2.0083,-1.1751 2.8333,-1.6151 0.825,-0.4401 1.5,-1.0519 1.5,-1.3597 0,-0.3078 0.3261,-0.5597 0.7247,-0.5597 0.615,0 6.1875,-3.6011 16.6112,-10.7347 5.7445,-3.9314 25.3726,-19.3071 27.9974,-21.932 0.1834,-0.1833 2.5834,-2.2676 5.3334,-4.6318 10.9553,-9.4184 35.5442,-35.2384 42.5702,-44.7015 0.9528,-1.2833 3.4013,-4.4333 5.4411,-7 7.5949,-9.5565 25.322,-35.82 25.322,-37.5156 0,-0.2087 0.4111,-0.853 0.9136,-1.4319 2.9959,-3.4515 18.1287,-33.255 22.5369,-44.38582 0.7261,-1.83334 1.7774,-4.38334 2.3362,-5.66667 1.3558,-3.11401 1.9236,-4.55435 2.8908,-7.33333 0.4467,-1.28334 1.2038,-3.23334 1.6826,-4.33334 0.4787,-1.1 1.0849,-2.9 1.3471,-4 0.2621,-1.1 0.6813,-2.3 0.9313,-2.66666 0.2501,-0.36667 0.8429,-2.01667 1.3174,-3.66667 0.4745,-1.65 1.1147,-3.6 1.4226,-4.33333 0.308,-0.73334 0.9068,-2.68334 1.3308,-4.33334 0.424,-1.65 0.9962,-3.59999 1.2717,-4.33333 0.7137,-1.89962 1.6559,-5.20818 3.2275,-11.33333 0.7527,-2.93333 1.8547,-7.21008 2.449,-9.50389 0.5942,-2.2938 1.3636,-5.7438 1.7097,-7.66666 0.3461,-1.92286 0.9259,-4.84612 1.2883,-6.49612 0.3624,-1.65 0.9607,-4.95 1.3296,-7.33333 0.3689,-2.38333 0.9874,-5.98333 1.3744,-8 0.3871,-2.01667 0.9727,-6.36667 1.3014,-9.66667 0.3286,-3.3 1.0844,-10.03672 1.6795,-14.97049 0.8968,-7.43454 1.0261,-13.76976 0.7555,-37 -0.1796,-15.41622 -0.6486,-30.4295 -1.0421,-33.36284 -0.3935,-2.93333 -1.0143,-8.03333 -1.3795,-11.33333 -0.3652,-3.3 -0.9384,-7.65 -1.2739,-9.66667 -0.3354,-2.01666 -0.9449,-5.76666 -1.3543,-8.33333 -0.4095,-2.56667 -1.1575,-6.46667 -1.6622,-8.66667 -0.5046,-2.2 -1.2789,-5.8 -1.7205,-8 -0.4417,-2.2 -1.0511,-4.6 -1.3545,-5.33333 -0.5105,-1.23457 -0.7105,-2.16986 -1.7475,-8.17285 -0.2065,-1.19506 -0.6423,-2.33776 -0.9684,-2.53934 -0.3261,-0.20158 -0.593,-1.08468 -0.593,-1.96245 0,-0.87778 -0.265,-2.28507 -0.5889,-3.12733 -0.3238,-0.84225 -1.5559,-4.68136 -2.738,-8.53136 -1.182,-3.85 -2.5953,-8.2 -3.1407,-9.66667 -0.5453,-1.46667 -1.4284,-4.01667 -1.9623,-5.66666 -0.5338,-1.65 -1.2252,-3.6 -1.5364,-4.33334 -0.3112,-0.73333 -0.9312,-2.38333 -1.3779,-3.66666 -0.4467,-1.28334 -1.1984,-3.23334 -1.6705,-4.33334 -0.472,-1.1 -1.6603,-3.95 -2.6406,-6.33333 -0.9803,-2.38333 -2.2826,-5.53333 -2.894,-7 -2.7798,-6.66851 -17.1506,-34.48369 -20.526,-39.72895 -1.0398,-1.61574 -2.22,-3.53772 -2.6227,-4.27105 -3.4377,-6.26009 -16.7063,-26.05935 -20.7749,-31 -0.4529,-0.55 -2.8568,-3.58243 -5.342,-6.73872 -9.8836,-12.55282 -18.5627,-22.32302 -29.8437,-33.59588 -9.724,-9.71694 -24.4513,-22.96286 -31.3414,-28.18882 -6.1177,-4.64011 -9.2995,-7.1075 -9.6667,-7.496 C 664.35351,119.11414 641.96391,104 641.14151,104 c -0.3699,0 -0.6726,-0.24444 -0.6726,-0.5432 0,-0.29875 -0.975,-1.0423 -2.1667,-1.65232 -1.1916,-0.61002 -3.3666,-1.863693 -4.8333,-2.785943 -1.4667,-0.92225 -3.4167,-2.04761 -4.3333,-2.50078 -0.9167,-0.45317 -1.8167,-0.98006 -2,-1.17086 -1.5811,-1.64546 -36.6663,-19.3469 -38.3466,-19.3469 -0.1577,0 -2.2517,-0.9 -4.6534,-2 -2.4017,-1.1 -4.6096,-2 -4.9065,-2 -0.2968,0 -3.4889,-1.2 -7.0935,-2.66667 -3.6046,-1.46666 -7.0443,-2.66666 -7.6436,-2.66666 -0.5994,0 -1.3748,-0.26132 -1.7231,-0.58072 -0.3483,-0.31939 -3.7833,-1.55953 -7.6333,-2.75586 -3.85,-1.19634 -8.35,-2.62358 -10,-3.17165 -1.65,-0.54807 -4.05,-1.22129 -5.3334,-1.49605 -1.2833,-0.27476 -6.5333,-1.55401 -11.6666,-2.84277 -10.7349,-2.69509 -14.3005,-3.48708 -20.3334,-4.5165 -2.3833,-0.40669 -5.8333,-1.00251 -7.6666,-1.32405 -10.7733,-1.88947 -14.4599,-2.36664 -31,-4.0124 -9.1912,-0.91453 -61.5335,-0.44224 -69.6667,0.62861 -2.9333,0.38622 -7.8833,1.00585 -11,1.37696 -7.8144,0.9305 -18.5637,2.67471 -25,4.05656 -1.8333,0.39361 -4.6833,0.97672 -6.3333,1.2958 -1.65,0.31907 -4.2,0.90591 -5.6667,1.30408 -1.4667,0.39818 -3.8667,0.99653 -5.3333,1.32969 -2.3925,0.54345 -9.998,2.53914 -15.3334,4.02347 -3.7831,1.0525 -13.3371,4.11503 -16,5.12879 -1.4666,0.55837 -4.0166,1.45201 -5.6666,1.98587 -1.65,0.53386 -3.6,1.22527 -4.3334,1.53646 -0.7333,0.3112 -2.3833,0.93126 -3.6666,1.37792 -2.2275,0.77528 -3.3729,1.23672 -8.6667,3.49142 -1.2833,0.54659 -4.2833,1.80711 -6.6667,2.80116 -10.2224,4.26358 -38.1994,18.70753 -43.3788,22.39561 -1.0048,0.71551 -2.0103,1.30093 -2.2343,1.30093 -0.8436,0 -16.0779,10.031863 -25.2292,16.613503 -6.5104,4.68223 -22.6057,17.3999 -24.491,19.35149 -0.55,0.56932 -2.7982,2.53511 -4.9961,4.3684 -8.9182,7.43909 -28.334,27.18261 -37.4165,38.04821 -1.5103,1.80678 -4.4353,5.28791 -6.5,7.73585 -2.0647,2.44793 -3.7541,4.74793 -3.7541,5.11111 0,0.36318 -0.2362,0.76032 -0.5249,0.88255 -0.9351,0.39579 -7.4751,8.84482 -7.4751,9.65701 0,0.43309 -0.2272,0.88743 -0.505,1.00965 -0.6476,0.28496 -7.495,9.57226 -7.495,10.1657 0,0.24589 -1.2,2.03646 -2.6666,3.97904 -1.4667,1.94258 -2.6667,3.7085 -2.6667,3.92425 0,0.21575 -1.125,2.14626 -2.5,4.29001 -3.6223,5.64744 -3.9657,6.2203 -5.7129,9.52989 -0.8711,1.65 -3.1748,5.85 -5.1193,9.33333 -6.396797,11.45888 -13.428097,26.16041 -18.014797,37.66667 -2.5409,6.37413 -5.6179,14.52458 -6.4157,16.99389 -0.5341,1.65336 -1.2379,3.60611 -1.564,4.33944 -0.9705,2.18246 -4.6733,14.64674 -4.6733,15.73118 0,0.55119 -0.2676,1.28715 -0.5946,1.63549 -0.327,0.34833 -1.054,2.58333 -1.6155,4.96666 -0.5616,2.38334 -1.5082,6.28334 -2.1036,8.66667 -1.252,5.011 -1.9831,8.20511 -3.052,13.33333 -0.4204,2.01667 -1.0231,4.86667 -1.3393,6.33334 -0.3163,1.46666 -0.9055,4.91666 -1.3094,7.66666 -0.4039,2.75 -1.0038,6.65 -1.3333,8.66667 -0.6427,3.93469 -1.4172,9.98744 -2.7722,21.66667 -1.138,9.80874 -1.18757,58.26721 -0.068,66.99999 3.8849,30.31623 3.9803,31.00937 4.8188,35 0.3853,1.83334 1.1669,5.88334 1.737,9 0.5702,3.11667 1.3207,6.1876 1.668,6.82429 0.3472,0.63669 0.6313,1.80189 0.6313,2.58932 0,1.44687 1.0506,5.80034 1.9917,8.25306 0.2814,0.73333 0.8704,2.98333 1.3089,5 0.4386,2.01667 1.0335,4.41667 1.322,5.33333 0.2886,0.91667 0.8864,2.86667 1.3284,4.33334 0.4421,1.46666 1.059,3.26666 1.371,3.99999 0.312,0.73334 1.5027,4.33334 2.6461,8 1.7972,5.76335 3.0969,9.49456 5.341,15.33334 1.1903,3.09698 4.9321,12.20218 6.0273,14.66666 2.0073,4.51677 15.211797,31.09316 17.601397,35.42586 4.2348,7.6783 15.2191,25.1038 19.7235,31.2893 1.6529,2.2699 4.3553,6.0257 6.0053,8.3464 3.3713,4.7414 16.6775,21.1795 21.2663,26.2718 12.5081,13.8802 38.4714,38.0838 52.0824,48.5524 6.2214,4.7851 17.9187,13.1142 18.4173,13.1142 0.2224,0 2.391,1.425 4.8192,3.1667 5.1711,3.7091 6.4968,4.5699 8.7482,5.6807 0.9166,0.4523 3.3342,1.8716 5.3723,3.1541 2.0381,1.2825 4.2881,2.6967 5,3.1427 0.7119,0.446 2.9443,1.6808 4.961,2.744 2.0167,1.0633 5.0167,2.7148 6.6667,3.6701 5.6547,3.274 23.6849,11.8519 30.3333,14.4311 2.2,0.8536 4.285,1.8051 4.6333,2.1146 0.3484,0.3095 1.2634,0.5627 2.0334,0.5627 0.77,0 1.685,0.2532 2.0333,0.5627 0.3483,0.3095 2.4333,1.2388 4.6333,2.065 2.2,0.8262 4.6,1.748 5.3334,2.0483 0.7333,0.3003 1.9333,0.6968 2.6666,0.8811 0.7334,0.1842 4.3334,1.3682 8,2.631 6.0287,2.0764 8.1889,2.7463 14.6667,4.5486 1.1,0.306 3.95,1.1192 6.3333,1.8069 2.3834,0.6877 7.3334,1.9219 11,2.7425 3.6667,0.8207 7.7167,1.7397 9,2.0423 4.4939,1.0596 9.045,1.905 14.3334,2.6625 2.9333,0.4202 6.5333,1.0169 8,1.326 1.4666,0.3092 6.4166,0.9037 11,1.3212 4.5833,0.4176 9.6833,1.009 11.3333,1.3144 4.4089,0.8161 64.5244,0.3988 71.6667,-0.4974 z m -48.577,-20.5876 c -0.2563,-0.2563 -5.0313,-0.7146 -10.6111,-1.0185 -19.4541,-1.0596 -28.0032,-1.9808 -34.7711,-3.7468 -1.4442,-0.3769 -3.4328,-0.5238 -4.4191,-0.3265 -0.9864,0.1972 -1.9974,0.029 -2.2469,-0.3752 -0.2494,-0.4036 -1.6181,-0.7338 -3.0415,-0.7338 -1.4234,0 -2.7734,-0.3 -3,-0.6667 -0.2266,-0.3667 -2.1766,-0.6667 -4.3333,-0.6667 -2.1567,0 -4.1067,-0.3 -4.3334,-0.6666 -0.2266,-0.3667 -1.2766,-0.6667 -2.3333,-0.6667 -1.0567,0 -2.1067,-0.3 -2.3333,-0.6667 -0.2266,-0.3666 -1.5236,-0.6666 -2.8821,-0.6666 -1.3586,0 -4.1116,-0.6 -6.1179,-1.3334 -2.0063,-0.7333 -4.4021,-1.3378 -5.3239,-1.3434 -1.7662,-0.011 -6.3319,-1.4234 -7.1081,-2.1997 -0.2513,-0.2513 -1.1203,-0.4569 -1.9311,-0.4569 -0.8107,0 -2.6357,-0.4873 -4.0555,-1.083 -1.4198,-0.5956 -4.3814,-1.5336 -6.5814,-2.0845 -2.2,-0.5509 -4.3,-1.2095 -4.6667,-1.4636 -0.3667,-0.2541 -2.0167,-0.8682 -3.6667,-1.3647 -1.65,-0.4965 -3.285,-1.1505 -3.6333,-1.4534 -0.3483,-0.3029 -1.1774,-0.5508 -1.8424,-0.5508 -0.6649,0 -1.7299,-0.2785 -2.3666,-0.6189 -0.6367,-0.3404 -2.6577,-1.2619 -4.491,-2.0477 -1.8333,-0.7859 -3.8543,-1.7074 -4.4909,-2.0478 -0.6367,-0.3404 -1.6404,-0.6189 -2.2305,-0.6189 -0.59,0 -1.8691,-0.5441 -2.8423,-1.2091 -0.9733,-0.665 -3.0446,-1.613 -4.603,-2.1067 -1.5583,-0.4937 -2.8333,-1.1021 -2.8333,-1.3521 0,-0.2499 -1.2,-0.8139 -2.6667,-1.2534 -1.4666,-0.4394 -2.6666,-1.0394 -2.6666,-1.3333 0,-0.2939 -1.2,-0.8939 -2.6667,-1.3333 -1.4667,-0.4394 -2.6667,-1.0631 -2.6667,-1.3859 0,-0.3228 -0.903,-0.7853 -2.0068,-1.0277 -1.1038,-0.2424 -2.3846,-0.7913 -2.8463,-1.2196 -0.4617,-0.4284 -2.7836,-1.8046 -5.1598,-3.0582 -2.3762,-1.2536 -5.0359,-2.8286 -5.9103,-3.5 -0.8744,-0.6714 -2.1494,-1.2207 -2.8333,-1.2207 -0.6839,0 -1.2435,-0.2636 -1.2435,-0.5858 0,-0.3222 -0.9,-0.9585 -2,-1.4142 -1.1,-0.4557 -2,-1.092 -2,-1.4142 0,-0.3222 -0.2872,-0.5858 -0.6384,-0.5858 -0.3511,0 -3.1261,-1.647 -6.1666,-3.6601 -3.0406,-2.013 -5.9783,-3.9557 -6.5283,-4.3171 -2.7612,-1.8143 -15.766,-11.039 -16.4261,-11.6515 -0.4177,-0.3875 -1.5971,-1.3046 -2.6208,-2.038 -1.0238,-0.7333 -3.682,-2.8325 -5.9072,-4.6648 -2.2253,-1.8323 -4.3459,-3.5468 -4.7126,-3.8099 -1.7019,-1.2213 -11.5912,-9.9495 -11.7833,-10.4 -0.1192,-0.2794 -1.5314,-1.5469 -3.1383,-2.8166 -5.7733,-4.5619 -28.4275,-28.277 -31.9743,-33.4715 -0.5647,-0.8271 -1.2104,-1.6538 -1.4349,-1.8372 -0.2244,-0.1833 -2.4342,-2.8833 -4.9106,-6 -2.4764,-3.1166 -4.9352,-6.195 -5.4639,-6.8409 -0.5287,-0.6459 -0.9613,-1.4143 -0.9613,-1.7076 0,-0.2934 -0.5375,-1.1149 -1.1943,-1.8257 -1.4925,-1.615 -5.4724,-7.3908 -5.4724,-7.9416 0,-0.225 -0.6797,-1.142 -1.5104,-2.0379 -0.8307,-0.8959 -2.1028,-2.7578 -2.8269,-4.1376 -0.7241,-1.3797 -1.4893,-2.6587 -1.7003,-2.842 -0.9177,-0.7972 -4.6291,-6.6394 -4.6291,-7.2868 0,-0.3922 -0.2674,-0.7132 -0.5942,-0.7132 -0.3269,0 -1.068,-1.125 -1.647,-2.5 -1.29,-3.0638 -3.2514,-6.4227 -3.9254,-6.7222 -0.275,-0.1222 -0.5,-0.6682 -0.5,-1.2132 0,-0.5451 -0.9,-2.2991 -2,-3.89792 -1.1,-1.5988 -2.0067,-3.30285 -2.0148,-3.78679 -0.01,-0.48393 -0.6015,-1.62988 -1.3186,-2.54655 -0.717,-0.91666 -1.317,-2.11666 -1.3333,-2.66666 -0.016,-0.55 -0.6163,-1.75 -1.3333,-2.66667 -0.717,-0.91667 -1.3104,-1.92377 -1.3185,-2.23802 -0.01,-0.31425 -0.9359,-2.56425 -2.0615,-5 -1.1257,-2.43575 -2.2831,-5.02865 -2.572,-5.76198 -0.289,-0.73333 -1.168,-2.63669 -1.9534,-4.22967 -0.7854,-1.59298 -1.428,-3.32205 -1.428,-3.84238 0,-0.52032 -0.265,-1.46697 -0.5888,-2.10366 -1.2055,-2.36958 -3.8939,-9.07233 -5.411197,-13.49096 -0.4406,-1.28333 -1.0476,-2.93333 -1.3487,-3.66666 -0.3011,-0.73334 -0.7233,-2.1451 -0.938,-3.13727 -0.2148,-0.99216 -0.7378,-2.64216 -1.1623,-3.66667 -1.0138,-2.44697 -3.0341,-9.44257 -4.2923,-14.86273 -0.5533,-2.38333 -1.2658,-4.93333 -1.5835,-5.66666 -0.3177,-0.73334 -0.9391,-3.43334 -1.3809,-6 -0.4418,-2.56667 -1.0171,-4.96667 -1.2784,-5.33334 -0.2613,-0.36666 -0.8407,-3.36666 -1.2874,-6.66666 -0.4468,-3.3 -1.066,-6.6 -1.3762,-7.33334 -0.6448,-1.52461 -2.0189,-12.97776 -2.0189,-16.82772 0,-1.41475 -0.2663,-2.85728 -0.5917,-3.20561 -2.5302,-2.70839 -2.6227,-80.10433 -0.1027,-85.96666 0.3153,-0.73334 0.9381,-4.93334 1.3841,-9.33334 0.446,-4.4 0.998,-8.3 1.2266,-8.66666 0.2287,-0.36667 0.9211,-3.51667 1.5386,-7 1.1495,-6.4837 3.3414,-16.21076 4.0562,-18 0.2197,-0.55 0.8533,-2.95 1.4079,-5.33334 1.3445,-5.77799 3.3856,-13.05161 4.5833,-16.33333 0.5353,-1.46667 1.3361,-3.86667 1.7796,-5.33333 0.4434,-1.46667 1.0864,-3.34167 1.4288,-4.16667 0.342397,-0.825 0.922597,-2.25 1.289297,-3.16667 0.3666,-0.91666 0.9387,-2.34166 1.2713,-3.16666 0.3326,-0.825 1.1072,-2.85 1.7214,-4.5 0.6142,-1.65 1.5727,-4.05 2.13,-5.33333 0.5573,-1.28334 1.2826,-3.00834 1.6119,-3.83334 0.3293,-0.825 0.8703,-2.175 1.2022,-3 1.1462,-2.84874 4.6079,-10.21126 10.7358,-22.83333 3.3822,-6.96667 6.7506,-13.9201 7.4853,-15.45207 3.7243,-7.76614 13.5308,-11.4059 19.6067,-7.27721 4.3123,2.93025 7.843,10.21907 6.4116,13.23615 -0.3896,0.82122 -1.0966,2.54313 -1.5711,3.82646 -0.4745,1.28334 -1.0298,2.48334 -1.2339,2.66667 -0.2042,0.18333 -0.7462,1.00833 -1.2046,1.83333 -0.4583,0.825 -1.2083,2.175 -1.6666,3 -0.4584,0.825 -0.992,1.65 -1.1858,1.83334 -0.1939,0.18333 -2.2487,4.23333 -4.5662,9 -2.3176,4.76666 -4.484,9.18759 -4.8142,9.82428 -0.3303,0.6367 -0.6005,1.49038 -0.6005,1.89709 0,0.40671 -0.5455,1.53578 -1.2123,2.50905 -0.6668,0.97326 -1.5789,3.04458 -2.0268,4.60291 -0.4479,1.55833 -1.1024,2.83333 -1.4543,2.83333 -0.352,0 -0.6399,0.60407 -0.6399,1.34238 0,0.73831 -0.2748,1.86331 -0.6106,2.5 -1.3136,2.49017 -2.723,6.06947 -2.7269,6.92504 0,0.49459 -0.3989,1.65571 -0.8814,2.58027 -0.4825,0.92456 -1.2962,3.09956 -1.8081,4.83333 -0.5119,1.73377 -1.1102,3.15231 -1.3296,3.15231 -0.2193,0 -0.7971,2.025 -1.2839,4.5 -0.4868,2.475 -1.0922,4.65 -1.3454,4.83334 -0.6584,0.47694 -4.006,13.13628 -6.7871,25.66666 -2.8422,12.80524 -5.8055,32.53864 -5.8617,39.03334 -0.018,2.035 -0.3137,3.985 -0.6579,4.33333 -1.5791,1.59776 -1.4048,48.85713 0.2223,60.3 0.1825,1.28333 0.6684,6.38333 1.0799,11.33333 0.4115,4.95 0.9968,9.6 1.3006,10.33333 0.3039,0.73334 0.93,4.33334 1.3913,8 0.4612,3.66667 1.0691,7.11667 1.3507,7.66667 0.2816,0.55 0.9554,3.25 1.4973,6 1.584,8.03811 5.3298,22.56983 6.4442,25 0.3363,0.73333 0.9778,2.68333 1.4256,4.33333 0.4478,1.65 1.015,3.3 1.2606,3.66667 0.2456,0.36666 0.8515,2.16666 1.3466,4 0.495,1.83333 1.2897,4.08333 1.766,5 0.4763,0.91666 0.8678,1.91088 0.87,2.20938 0,0.2985 0.7541,2.18239 1.6708,4.18642 0.9167,2.00404 1.6667,3.90647 1.6667,4.22762 0,0.32115 0.567,1.73726 1.26,3.14691 3.5675,7.25677 6.74,14.22367 6.74,14.80121 0,0.35788 0.225,0.75068 0.5,0.8729 0.275,0.12222 2.2309,3.67222 4.3465,7.88889 4.2314,8.43361 6.1373,11.98637 6.9741,13 0.3027,0.36667 1.4163,2.16669 2.4745,3.99999 2.0431,3.5395 8.3331,13.1063 8.9856,13.6667 0.2134,0.1833 0.8133,1.1583 1.333,2.1666 0.5197,1.0084 1.1942,1.8334 1.4989,1.8334 0.3047,0 0.554,0.3202 0.554,0.7116 0,0.602 1.9885,3.2744 7.0412,9.4627 0.5274,0.6458 0.96,1.3958 0.9615,1.6666 0.001,0.2708 1.5003,2.1424 3.3307,4.1591 1.8304,2.0166 3.3292,3.8694 3.3306,4.1173 0.001,0.2479 1.1277,1.7029 2.5027,3.2333 3.687,4.1039 30.965,31.437 32.8675,32.9338 1.3295,1.0461 5.8166,4.8136 10.3801,8.7156 0.4288,0.3666 1.7338,1.4166 2.8999,2.3333 1.1661,0.9167 2.9225,2.3413 3.903,3.1659 0.9806,0.8245 2.1578,1.4995 2.6162,1.5 0.4583,4e-4 0.8333,0.2499 0.8333,0.5544 0,0.3045 1.425,1.5675 3.1667,2.8066 1.7416,1.2391 3.2666,2.49 3.3889,2.7797 0.1222,0.2897 0.5906,0.5267 1.0409,0.5267 0.4503,0 1.4192,0.5594 2.1531,1.2432 0.7339,0.6837 2.0466,1.6243 2.9171,2.0902 0.8705,0.4658 1.9016,1.1106 2.2913,1.4329 1.9661,1.6254 16.6612,10.6918 21.5946,13.3231 1.9539,1.0421 4.4002,2.4983 5.4363,3.236 1.036,0.7377 2.2873,1.348 2.7807,1.3561 0.4934,0.01 1.6471,0.6015 2.5637,1.3185 0.9167,0.717 2.1167,1.317 2.6667,1.3334 0.55,0.016 1.75,0.6163 2.6667,1.3333 0.9166,0.717 2.1166,1.317 2.6666,1.3333 0.55,0.016 1.75,0.6164 2.6667,1.3334 0.9167,0.717 2.0665,1.3103 2.5553,1.3185 0.4887,0.01 3.3113,1.2148 6.2724,2.6815 2.9611,1.4666 5.7228,2.6666 6.1371,2.6666 0.4143,0 1.9301,0.6 3.3685,1.3334 1.4384,0.7333 3.0051,1.3333 3.4816,1.3333 0.4765,0 2.138,0.5715 3.6924,1.2701 1.5543,0.6985 3.726,1.4716 4.826,1.718 1.1,0.2464 2.9,0.8468 4,1.3341 1.1,0.4873 2.9,1.0873 4,1.3333 1.1,0.246 2.9,0.8468 4,1.3351 2.0311,0.9016 4.2623,1.4835 8.1667,2.1299 1.1917,0.1973 2.1667,0.5729 2.1667,0.8347 0,0.2618 2.4,0.882 5.3333,1.3781 2.9333,0.4962 5.3333,1.0863 5.3333,1.3113 0,0.2251 2.625,0.8065 5.8334,1.2921 3.2083,0.4856 6.1333,1.1118 6.5,1.3916 0.3666,0.2798 3.8166,0.8913 7.6666,1.3588 3.85,0.4674 7.3,1.0616 7.6667,1.3202 0.3667,0.2587 4.8667,0.8294 10,1.2682 5.1333,0.4388 10.3833,1.0945 11.6667,1.457 1.2833,0.3626 10.2833,0.9043 20,1.2038 17.3346,0.5342 17.7308,0.5779 21.0827,2.3219 1.8788,0.9776 4.5038,2.8339 5.8333,4.125 2.1909,2.1277 2.4173,2.6851 2.4173,5.9509 0,5.959 -2.5825,10.439 -7.1449,12.3947 -1.6311,0.6991 -3.6731,1.2712 -4.5377,1.2712 -0.8646,0 -1.7575,0.3 -1.9841,0.6667 -0.4634,0.7498 -14.5096,0.9348 -15.2436,0.2008 z m 63.9103,-1.8218 c -0.3667,-0.1443 -1.5035,-0.4473 -2.5263,-0.6734 -4.1039,-0.9068 -8.4737,-7.2742 -8.4737,-12.3474 0,-7.8728 6.1143,-12.6592 16.1998,-12.6815 5.4201,-0.012 7.5209,0.937 10.5553,4.7683 1.987,2.5087 2.2594,3.3554 2.479,7.7045 0.2157,4.2709 0.049,5.1786 -1.327,7.2105 -2.629,3.8831 -5.7684,5.5237 -11.3419,5.927 -2.6942,0.195 -5.1985,0.2364 -5.5652,0.092 z m 49.5772,-18.5497 c -3.4919,-2.4444 -4.5784,-4.7109 -4.5747,-9.5433 0,-3.5162 1.1822,-6.0124 4.295,-9.0894 1.993,-1.97 6.8192,-4.53 8.5403,-4.53 0.5959,0 1.2435,-0.2588 1.439,-0.5752 0.1955,-0.3164 1.721,-0.9575 3.3899,-1.4248 1.6689,-0.4672 3.1943,-1.1084 3.3898,-1.4248 0.1955,-0.3163 0.7911,-0.5752 1.3234,-0.5752 0.5324,0 2.3897,-0.6298 4.1274,-1.3998 1.7376,-0.7698 3.7594,-1.6342 4.4927,-1.921 0.7333,-0.2866 2.6833,-1.1308 4.3333,-1.8759 1.65,-0.7451 4.35,-1.9587 6,-2.6969 1.65,-0.7382 6.1934,-2.8641 10.0965,-4.7242 6.755,-3.2195 7.3613,-3.3822 12.6037,-3.3822 4.8426,0 5.7702,0.2006 7.6854,1.6614 1.198,0.9137 2.6513,2.6098 3.2296,3.769 1.1718,2.349 1.4711,10.5696 0.3848,10.5696 -0.3666,0 -0.6666,0.4158 -0.6666,0.924 0,1.5592 -4.6224,5.5155 -7.5566,6.4678 -1.5272,0.4957 -3.1879,1.3 -3.6905,1.7874 -0.5025,0.4875 -1.7775,1.0591 -2.8333,1.2702 -1.0558,0.2112 -1.9196,0.5984 -1.9196,0.8606 0,0.2622 -1.2,0.8726 -2.6667,1.3567 -1.4667,0.4841 -2.6667,1.1321 -2.6667,1.4401 0,0.3079 -0.3189,0.5599 -0.7086,0.5599 -0.3898,0 -2.5648,0.8626 -4.8334,1.9169 -5.9151,2.749 -8.3138,3.7919 -12.458,5.4164 -2.0166,0.7906 -4.5666,1.8529 -5.6666,2.3607 -6.7545,3.1182 -13.3024,4.9725 -17.5455,4.9687 -3.9412,-0.01 -4.8106,-0.2534 -7.544,-2.1667 z m 93.0766,-51.246 c -3.745,-2.6605 -4.6583,-4.5007 -4.6063,-9.2806 0.077,-7.1081 2.6647,-10.2844 15.2832,-18.7629 3.4784,-2.3372 19.8036,-15.2922 23.699,-18.8065 7.992,-7.2102 9.782,-8.4349 13.9387,-9.5372 5.7085,-1.5138 8.5346,-1.027 11.9231,2.0539 3.8404,3.4915 4.671,11.2546 1.6866,15.7642 -0.9654,1.4588 -1.9404,2.659 -2.1667,2.6671 -0.2263,0.01 -1.9114,1.3943 -3.7447,3.0805 -11.8379,10.8876 -35.8952,29.8111 -41.613,32.7327 -4.092,2.0909 -11.5173,2.1367 -14.3999,0.089 z m 81.6795,-70.4755 c -2.5928,-0.6863 -5.8297,-2.8583 -6.5384,-4.3874 -1.7514,-3.7786 -2.3394,-7.06 -1.5684,-8.7522 0.4254,-0.9337 0.7735,-2.8889 0.7735,-4.345 0,-2.1919 0.8315,-3.8634 4.8333,-9.7161 4.8145,-7.0412 8.9547,-13.4376 11.1594,-17.24046 3.2704,-5.64138 4.3133,-7.36286 4.6442,-7.66666 0.8187,-0.7516 14.6964,-28.15964 14.6964,-29.02498 0,-0.21658 0.75,-2.03346 1.6667,-4.0375 0.9167,-2.00404 1.6667,-4.08481 1.6667,-4.62395 0,-0.53913 0.3,-0.98024 0.6666,-0.98024 0.3667,0 0.6667,-0.58229 0.6667,-1.29399 0,-0.71169 0.3,-1.4794 0.6667,-1.70601 0.3666,-0.22661 0.6666,-0.93797 0.6666,-1.58079 0,-0.64282 0.6,-2.41063 1.3334,-3.92845 0.7333,-1.51783 1.3333,-3.31418 1.3333,-3.99189 0,-0.67771 0.2479,-1.5172 0.5507,-1.86554 0.303,-0.34833 0.9372,-1.98333 1.4094,-3.63333 0.8971,-3.13462 1.7891,-5.53457 2.7844,-7.49095 0.3238,-0.63669 0.5888,-2.01169 0.5888,-3.05555 0,-1.04387 0.2056,-2.10354 0.4569,-2.35483 0.8597,-0.85975 2.1897,-5.43007 2.1997,-7.55932 0.01,-1.17003 0.2755,-2.29136 0.5999,-2.49184 0.5889,-0.36397 0.9471,-1.76253 2.0609,-8.04751 0.9138,-5.15571 1.3989,-7.21823 2.0384,-8.66666 0.3238,-0.73334 0.7316,-3.13334 0.906,-5.33334 0.1746,-2.2 0.6587,-5.8 1.076,-8 0.7522,-3.96588 1.5769,-12.08666 2.3356,-23 0.2167,-3.11666 0.6886,-6.26666 1.0488,-7 0.8358,-1.7018 0.3255,-36.98505 -0.6604,-45.66666 -0.3956,-3.48333 -0.9986,-9.48333 -1.34,-13.33333 -0.3413,-3.85 -0.9604,-8.65 -1.3757,-10.66667 -0.4153,-2.01667 -1.0247,-5.61667 -1.3543,-8 -1.0012,-7.23903 -1.4457,-9.32916 -2.0654,-9.71219 -0.3262,-0.20158 -0.593,-1.83109 -0.593,-3.62114 0,-1.79006 -0.3,-3.44006 -0.6667,-3.66667 -0.3667,-0.22661 -0.6667,-1.27661 -0.6667,-2.33333 0,-1.05672 -0.3,-2.10672 -0.6666,-2.33334 -0.3667,-0.22661 -0.6667,-1.57661 -0.6667,-3 0,-1.42338 -0.3,-2.77338 -0.6667,-3 -0.3666,-0.22661 -0.6666,-1.27661 -0.6666,-2.33333 0,-1.05672 -0.3,-2.10672 -0.6667,-2.33333 -0.3667,-0.22662 -0.6667,-1.10432 -0.6667,-1.95044 0,-0.84614 -0.5598,-3.00343 -1.244,-4.794 -0.6843,-1.79056 -1.6042,-4.45556 -2.0442,-5.92223 -0.4399,-1.46667 -1.0459,-3.26667 -1.3465,-4 -0.3007,-0.73333 -0.9461,-2.68333 -1.4343,-4.33333 -0.4883,-1.65 -1.2708,-3.75 -1.7391,-4.66667 -0.4682,-0.91667 -1.0363,-2.64167 -1.2625,-3.83333 -0.2261,-1.19167 -0.6452,-2.16667 -0.9313,-2.16667 -0.2861,0 -0.7259,-0.825 -0.9772,-1.83333 -0.2513,-1.00834 -0.9051,-2.88334 -1.4526,-4.16667 -3.3903,-7.94557 -15.3943,-31.80748 -16.6869,-33.17061 -0.4368,-0.46051 -0.9839,-1.43551 -1.216,-2.16667 -0.232,-0.73116 -0.7017,-1.32938 -1.0436,-1.32938 -0.342,0 -0.6218,-0.42344 -0.6218,-0.94097 0,-1.43223 -23.2178,-35.99101 -28.2567,-42.05903 -8.0605,-9.70672 -10.6714,-12.58312 -18.4505,-20.32734 -12.1046,-12.05036 -26.1569,-24.75975 -30.7928,-27.85001 -1.375,-0.91657 -2.5,-1.87611 -2.5,-2.1323 0,-0.25619 -1.425,-1.39002 -3.1666,-2.51964 -1.7417,-1.12961 -3.8137,-2.60514 -4.6045,-3.27894 -0.7908,-0.67381 -2.1076,-1.6751 -2.9261,-2.2251 -0.8185,-0.55 -2.2715,-1.63782 -3.2288,-2.41736 -3.136,-2.55364 -16.3165,-10.91598 -17.2055,-10.91598 -0.4777,0 -0.8685,-0.27978 -0.8685,-0.62174 0,-0.34196 -0.5982,-0.81161 -1.3294,-1.04367 -0.7311,-0.23206 -1.7061,-0.77728 -2.1666,-1.21159 -0.4605,-0.43432 -2.0373,-1.41228 -3.504,-2.17325 -3.6599,-1.89895 -5.9367,-3.21261 -6.3333,-3.65426 -0.1833,-0.20415 -1.3833,-0.78712 -2.6667,-1.29549 -1.2833,-0.50836 -2.4833,-1.09133 -2.6666,-1.29548 -0.6794,-0.75648 -19.8133,-10.03839 -20.7229,-10.05268 -0.5191,-0.008 -1.6938,-0.60148 -2.6105,-1.3185 -0.9166,-0.71703 -2.1825,-1.31036 -2.813,-1.31851 -0.6305,-0.008 -2.2147,-0.61483 -3.5203,-1.34816 -1.3056,-0.73333 -3.0398,-1.34001 -3.8536,-1.34816 -0.8139,-0.008 -2.2297,-0.60148 -3.1464,-1.31851 -0.9167,-0.71702 -2.1353,-1.31035 -2.7081,-1.3185 -0.5728,-0.008 -2.2833,-0.61483 -3.8011,-1.34816 -1.5179,-0.73334 -3.1679,-1.33334 -3.6667,-1.33334 -0.4989,0 -2.1489,-0.6 -3.6667,-1.33333 C 543.10851,116.6 541.23121,116 540.45461,116 c -1.6503,0 -7.0609,-3.55393 -8.9857,-5.90227 -2.1195,-2.58579 -4.3333,-6.69038 -4.3333,-8.03421 0,-3.609613 3.8103,-8.856423 8.2374,-11.342993 2.4788,-1.39226 6.2794,-1.83566 7.4626,-0.87065 0.3483,0.28411 3.7833,1.55911 7.6333,2.83333 3.85,1.27424 7.15,2.5041 7.3333,2.73304 0.1834,0.22893 1.3834,0.63338 2.6667,0.89877 1.2833,0.26539 2.9333,0.85563 3.6667,1.31163 0.7333,0.456 2.2229,1.04848 3.3102,1.31662 1.0873,0.26814 3.2623,1.065593 4.8333,1.772123 1.5711,0.70653 4.2065,1.89211 5.8565,2.63461 1.65,0.7425 3.975,1.52187 5.1667,1.73194 1.1916,0.21006 3.4383,0.95256 4.9927,1.64999 1.5543,0.69744 3.1293,1.26807 3.5,1.26807 0.3706,0 0.6739,0.26688 0.6739,0.59308 0,0.3262 1.3492,0.99146 2.9983,1.47836 1.649,0.4869 3.9558,1.7026 5.1263,2.70154 1.1704,0.99894 2.3619,1.67172 2.6477,1.49506 0.2858,-0.17665 2.554,0.78314 5.0404,2.13289 9.2276,5.0093 11.9142,6.44883 14.3459,7.68693 3.618,1.84213 30.058,19.36686 31.7068,21.0156 0.4931,0.4931 1.1001,0.89797 1.3489,0.89972 0.2488,0.002 1.5187,0.97676 2.8219,2.16667 1.3033,1.18991 3.1783,2.58917 4.1667,3.10947 0.9884,0.52029 1.7971,1.1997 1.7971,1.5098 0,0.31009 0.8529,1.0844 1.8953,1.72068 1.0424,0.63627 4.1174,3.14644 6.8333,5.57814 2.7159,2.4317 5.9318,5.24915 7.1464,6.261 6.7935,5.65946 35.2119,35.44993 37.0508,38.83951 0.3416,0.62968 1.4731,1.97248 2.5143,2.98401 1.0413,1.01152 1.8932,2.06351 1.8932,2.33777 0,0.27424 1.3472,1.99664 2.9938,3.82753 1.6467,1.83089 3.1669,3.8539 3.3783,4.49557 0.2115,0.64166 0.6643,1.16666 1.0062,1.16666 0.3419,0 0.6225,0.375 0.6233,0.83334 0,0.45833 0.9002,1.88333 1.9984,3.16666 1.0983,1.28334 1.9976,2.68334 1.9985,3.11112 0,0.42777 0.2531,0.87777 0.5605,1 0.8044,0.31984 12.7744,18.37478 12.7744,19.26836 0,0.41142 0.67,1.68905 1.489,2.83918 3.4249,4.8098 18.6068,35.3186 20.6256,41.44801 0.483,1.46667 1.0469,2.81667 1.253,3 0.2061,0.18333 0.7679,1.38333 1.2484,2.66667 0.4805,1.28333 1.2912,3.28437 1.8015,4.44677 0.5103,1.1624 1.1127,3.0374 1.3385,4.16666 0.2258,1.12928 0.6076,2.05323 0.8484,2.05323 0.2408,0 0.8469,1.425 1.3469,3.16667 0.5001,1.74166 1.119,3.46666 1.3755,3.83333 0.2564,0.36667 0.8594,2.16667 1.3398,4 0.4805,1.83333 1.0822,3.63333 1.337,4 0.2549,0.36667 0.8494,2.54167 1.321,4.83333 0.4716,2.29167 1.0514,4.16667 1.2884,4.16667 0.237,0 0.8288,2.175 1.315,4.83333 0.4863,2.65834 1.1164,5.13334 1.4004,5.5 0.284,0.36667 0.8992,2.91667 1.3669,5.66667 0.4678,2.75 1.0763,5.3 1.3522,5.66667 0.2759,0.36666 0.8587,3.21666 1.2951,6.33333 0.4364,3.11667 1.041,6.26667 1.3435,7 0.7047,1.70841 1.9805,10.93361 1.9805,14.32122 0,1.43005 0.2563,2.75846 0.5695,2.95203 1.6238,1.00357 3.4325,44.09973 2.4926,59.39341 -0.2028,3.3 -0.7161,11.625 -1.1405,18.5 -0.4246,6.875 -1.0306,12.5 -1.3468,12.5 -0.3161,0 -0.5719,0.975 -0.5684,2.16667 0.011,3.83837 -1.5854,15.16667 -2.138,15.16667 -0.2942,0 -0.535,0.74443 -0.535,1.65429 0,2.32377 -1.5369,11.2765 -2.0049,11.67904 -0.2131,0.18333 -0.7799,2.73333 -1.2595,5.66667 -0.4796,2.93333 -1.0642,5.63333 -1.2994,6 -0.6543,1.02071 -2.0404,6.47972 -2.0735,8.16666 -0.016,0.825 -0.296,1.5 -0.6219,1.5 -0.3258,0 -0.787,1.03715 -1.0248,2.30478 -0.5248,2.79734 -3.5715,12.97179 -4.3006,14.36189 -0.2885,0.55 -0.9405,2.425 -1.4489,4.16666 -0.5083,1.74167 -1.1254,3.16667 -1.3712,3.16667 -0.2458,0 -0.6319,0.975 -0.8581,2.16667 -0.2261,1.19166 -0.7942,2.91666 -1.2624,3.83333 -0.4683,0.91667 -1.2647,2.94167 -1.7698,4.5 -0.5052,1.55833 -1.1162,2.83333 -1.3579,2.83333 -0.2417,0 -0.8479,1.5 -1.3471,3.33334 -0.4992,1.83333 -1.1302,3.33333 -1.4022,3.33333 -0.2719,0 -0.8635,1.125 -1.3146,2.5 -1.0824,3.29893 -6.1108,13.28777 -9.7269,19.32199 -1.5893,2.65209 -2.8897,4.998 -2.8897,5.2132 0,0.2152 -0.9,1.6994 -2,3.2981 -1.1,1.5988 -2,3.3412 -2,3.8719 0,0.5307 -0.4303,1.3221 -0.9563,1.7586 -0.526,0.4365 -1.6095,2.0483 -2.4078,3.5816 -3.8711,7.4357 -5.9251,10.7075 -11.167,17.7879 -3.1217,4.2167 -6.3601,8.3361 -7.1964,9.1542 -3.4779,3.4022 -8.7101,5.2299 -12.2725,4.287 z m -332,-50.07851 c -0.55,-0.37156 -1.7662,-0.68016 -2.7028,-0.68577 -2.0582,-0.0123 -7.8285,-3.54606 -8.4504,-5.17501 -0.2453,-0.64269 -0.9863,-1.7501 -1.6464,-2.46091 -0.6602,-0.7108 -1.2004,-1.7758 -1.2004,-2.36666 0,-0.59086 -0.3552,-1.42956 -0.7894,-1.86377 -0.9819,-0.98189 -1.0727,-11.39451 -0.1049,-12.02861 0.3766,-0.24672 0.8743,-1.42358 1.1062,-2.61523 0.2318,-1.19166 0.9932,-3.44166 1.692,-5 0.6988,-1.55835 1.4752,-3.58335 1.7253,-4.50002 0.25,-0.91667 0.72,-2.26667 1.0443,-3 1.3349,-3.01823 3.9935,-10.14746 3.9973,-10.71897 0,-0.3379 0.4194,-1.41036 0.927,-2.38325 0.5077,-0.97289 1.2767,-2.92288 1.7091,-4.33333 0.4323,-1.41045 1.0514,-3.16445 1.3757,-3.89778 0.3242,-0.73333 1.5411,-3.88333 2.704,-7 1.163,-3.11667 2.4934,-6.56667 2.9565,-7.66667 0.4631,-1.1 1.0442,-2.75 1.2914,-3.66666 0.2471,-0.91667 0.7167,-2.26667 1.0435,-3 0.3268,-0.73334 1.5409,-3.88334 2.698,-7 2.483,-6.68801 3.2415,-8.59752 4.0352,-10.15762 0.3238,-0.6367 0.5888,-1.60257 0.5888,-2.14639 0,-0.54383 0.6,-2.05702 1.3334,-3.36266 0.7333,-1.30564 1.3333,-3.09706 1.3333,-3.98093 0,-0.88388 0.2809,-1.78062 0.6241,-1.99278 0.3433,-0.21214 1.2882,-2.48993 2.0999,-5.06173 0.8117,-2.57181 1.7308,-4.83364 2.0426,-5.0263 0.3117,-0.19265 0.5667,-0.92345 0.5667,-1.62399 0,-0.70054 0.6,-2.34196 1.3334,-3.6476 0.7333,-1.30564 1.3333,-2.82926 1.3333,-3.38582 0,-0.55656 0.6,-2.25378 1.3333,-3.77161 0.7334,-1.51782 1.3334,-3.16782 1.3334,-3.66667 0,-0.49884 0.6,-2.14884 1.3333,-3.66666 0.7333,-1.51782 1.3333,-3.01782 1.3333,-3.33334 0,-0.3155 0.6,-1.8155 1.3334,-3.33333 0.7333,-1.51782 1.3333,-3.16782 1.3333,-3.66667 0,-0.49884 0.6,-2.14884 1.3333,-3.66666 0.7334,-1.51782 1.3334,-3.16782 1.3334,-3.66667 0,-0.49884 0.6,-2.14884 1.3333,-3.66667 0.7333,-1.51782 1.3333,-3.05861 1.3333,-3.42398 0,-0.36536 0.5662,-1.88401 1.2582,-3.37478 0.6919,-1.49076 1.6574,-4.13548 2.1455,-5.87714 0.4881,-1.74167 1.1219,-3.16667 1.4086,-3.16667 0.2866,0 0.5211,-0.58588 0.5211,-1.30196 0,-1.26612 1.2766,-4.69384 1.9979,-5.3647 0.1972,-0.18334 0.6975,-1.53334 1.1119,-3 0.9042,-3.19996 3.3108,-9.85764 4.6151,-12.76742 0.518,-1.15542 0.9417,-2.51366 0.9417,-3.01833 0,-0.50467 0.3946,-1.50933 0.8769,-2.23258 0.4823,-0.72325 1.2632,-2.66501 1.7355,-4.31501 0.4723,-1.65 1.0841,-3.3 1.3596,-3.66666 0.2755,-0.36667 0.91,-2.09167 1.41,-3.83334 0.5,-1.74166 1.1102,-3.16666 1.356,-3.16666 0.2459,0 0.632,-0.975 0.8581,-2.16667 0.2261,-1.19167 0.7942,-2.91667 1.2625,-3.83333 0.4682,-0.91667 1.2706,-3.01667 1.7831,-4.66667 0.5125,-1.65 1.1238,-3.3 1.3583,-3.66667 0.2346,-0.36666 0.843,-2.01666 1.352,-3.66666 0.509,-1.65 1.1006,-3.15 1.3147,-3.33334 0.2141,-0.18333 0.8057,-1.68333 1.3147,-3.33333 0.509,-1.65 1.1089,-3.3 1.333,-3.66667 0.2241,-0.36666 0.7899,-1.86666 1.2573,-3.33333 0.4674,-1.46667 1.13,-3.34167 1.4724,-4.16667 0.3424,-0.825 0.8825,-2.175 1.2001,-3 0.9629,-2.50115 2.2111,-5.43398 2.8336,-6.65762 0.3239,-0.63669 0.5889,-1.57168 0.5889,-2.07776 0,-0.87358 1.1814,-4.1057 4.6047,-12.59795 1.233,-3.05875 2.8827,-7.58724 3.8251,-10.5 0.5339,-1.65 1.2556,-3.675 1.6038,-4.5 0.3482,-0.825 0.9331,-2.25 1.2997,-3.16666 0.3667,-0.91667 0.9469,-2.34167 1.2893,-3.16667 0.3424,-0.825 1.0037,-2.7 1.4694,-4.16667 0.4658,-1.46666 1.0856,-2.95166 1.3774,-3.3 0.2918,-0.34833 0.5306,-1.35111 0.5306,-2.22839 0,-2.3576 7.5579,-9.63569 11.0773,-10.6673 4.7928,-1.40481 13.3971,-0.73075 15.8436,1.24116 0.4102,0.33061 1.7208,1.38229 2.9124,2.33708 1.1917,0.95479 2.1667,2.15931 2.1667,2.67671 0,0.51741 0.2268,0.94074 0.5039,0.94074 0.9389,0 3.4961,7.53515 3.4961,10.30154 0,1.58517 -2.7894,10.87574 -4.6133,15.36513 -0.6333,1.55905 -1.793,4.37419 -2.6775,6.5 -0.3433,0.825 -1.5894,4.2 -2.7692,7.5 -1.1798,3.3 -2.6989,7.21972 -3.3758,8.71048 -0.677,1.49076 -1.2309,3.15576 -1.2309,3.7 0,0.54424 -0.2478,1.27452 -0.5507,1.62285 -0.3029,0.34833 -0.957,1.98333 -1.4534,3.63333 -0.4965,1.65 -1.1051,3.3 -1.3524,3.66667 -0.2473,0.36667 -0.8588,2.09167 -1.3588,3.83333 -0.5,1.74167 -1.1046,3.16667 -1.3436,3.16667 -0.2389,0 -0.82,1.425 -1.2912,3.16667 -0.4712,1.74166 -1.0577,3.46666 -1.3033,3.83333 -0.2455,0.36667 -0.83,2.01667 -1.2987,3.66667 -0.4687,1.65 -1.0747,3.3 -1.3466,3.66666 -0.2719,0.36667 -0.8799,2.09167 -1.3511,3.83334 -0.4712,1.74166 -1.0844,3.16666 -1.3626,3.16666 -0.2782,0 -0.7164,1.125 -0.9738,2.5 -0.2574,1.375 -1.0189,3.71041 -1.6922,5.1898 -0.6732,1.47938 -1.4374,3.57938 -1.6981,4.66666 -0.2607,1.08728 -0.7016,2.27688 -0.9799,2.64354 -0.2782,0.36667 -0.8948,2.01667 -1.3702,3.66667 -0.4754,1.65 -1.2341,3.6 -1.6862,4.33333 -0.452,0.73334 -1.0274,2.45834 -1.2787,3.83334 -0.2513,1.375 -0.6504,2.5 -0.887,2.5 -0.2366,0 -0.8139,1.275 -1.2829,2.83333 -1.2555,4.17187 -4.2826,12.16674 -5.5497,14.65762 -0.3239,0.63669 -0.5889,1.55535 -0.5889,2.04145 0,0.4861 -0.6,2.12568 -1.3333,3.6435 -0.7333,1.51783 -1.3333,3.16783 -1.3333,3.66667 0,0.49884 -0.6,2.14884 -1.3334,3.66666 -0.7333,1.51783 -1.3333,3.07825 -1.3333,3.4676 0,0.38936 -0.3,1.30385 -0.6667,2.03221 -0.3666,0.72836 -0.9666,1.92021 -1.3333,2.64857 -0.3667,0.72836 -0.6667,1.72202 -0.6667,2.20812 0,0.4861 -0.6,2.12568 -1.3333,3.6435 -0.7333,1.51783 -1.34,3.29918 -1.3482,3.95856 -0.01,0.65938 -0.6014,1.94887 -1.3185,2.86554 -0.717,0.91666 -1.3103,2.43166 -1.3185,3.36666 -0.01,0.935 -0.2799,1.985 -0.6038,2.33334 -0.324,0.34833 -1.2589,2.58333 -2.0777,4.96666 -0.8187,2.38334 -1.7536,4.61834 -2.0776,4.96667 -0.324,0.34833 -0.589,1.03783 -0.589,1.53221 0,0.49437 -0.6,2.14072 -1.3334,3.65855 -0.7333,1.51782 -1.3333,3.16782 -1.3333,3.66667 0,0.49884 -0.6,2.14884 -1.3333,3.66666 -0.7334,1.51782 -1.3334,3.1566 -1.3334,3.64173 0,0.48513 -0.5655,2.15377 -1.2566,3.70811 -1.6788,3.77519 -3.8347,9.51297 -4.882,12.99274 -0.469,1.55833 -1.0796,2.83333 -1.357,2.83333 -0.2774,0 -0.5044,0.73229 -0.5044,1.62732 0,0.89503 -0.3,1.81273 -0.6666,2.03935 -0.3667,0.22661 -0.6667,0.96932 -0.6667,1.65045 0,0.68114 -0.225,1.33843 -0.5,1.46066 -0.275,0.12222 -1.5192,3.22222 -2.7649,6.88889 -1.2457,3.66666 -2.4816,6.96666 -2.7464,7.33333 -0.2649,0.36667 -0.8466,1.86667 -1.2926,3.33333 -0.4461,1.46667 -1.2121,3.56667 -1.7022,4.66667 -0.4901,1.1 -1.109,2.9 -1.3753,4 -0.2663,1.1 -0.8894,2.59175 -1.3847,3.31501 -0.4953,0.72324 -0.9024,1.77324 -0.9047,2.33333 0,0.56008 -0.4194,1.81432 -0.927,2.78721 -0.5076,0.97289 -1.2816,2.92289 -1.7201,4.33333 -0.4384,1.41045 -1.1981,3.46445 -1.6882,4.56445 -0.4901,1.1 -1.0967,2.825 -1.3481,3.83333 -0.2513,1.00834 -0.659,1.83334 -0.9059,1.83334 -0.2468,0 -0.8579,1.425 -1.3579,3.16666 -0.5,1.74167 -1.103,3.46667 -1.3399,3.83334 -0.2368,0.36666 -0.8185,1.86666 -1.2924,3.33333 -0.474,1.46667 -1.4366,3.9384 -2.1391,5.49273 -0.7025,1.55434 -1.2773,3.07299 -1.2773,3.37478 0,0.3018 -0.6,1.79058 -1.3333,3.3084 -0.7333,1.51782 -1.3333,3.03639 -1.3333,3.37458 0,1.34573 -3.5455,6.84893 -5.2201,8.10258 -0.979,0.73283 -2.2006,1.69018 -2.7148,2.12744 -0.5141,0.43725 -2.3141,1.05395 -4,1.37043 -1.6858,0.31647 -3.8151,0.72058 -4.7318,0.89801 -0.9167,0.17743 -2.1167,0.0186 -2.6667,-0.35297 z m -62.3333,-41.51033 c -4.2837,-1.51878 -5.7945,-2.94904 -65,-61.53522 -16.3167,-16.14599 -34.2413,-33.83523 -39.8326,-39.30943 -5.5913,-5.47418 -10.3568,-10.56535 -10.5899,-11.3137 -0.2331,-0.74834 -0.738,-1.56204 -1.1219,-1.80822 -0.4068,-0.26086 -0.69,-3.0422 -0.6787,-6.66667 0.016,-5.32461 0.2463,-6.60261 1.5977,-8.88574 0.8681,-1.46667 11.3303,-12.26666 23.2492,-24 11.9189,-11.73333 37.1555,-36.70833 56.0814,-55.5 l 34.4106,-34.16666 h 6.9097 c 6.5642,0 7.082,0.1044 10.3544,2.0877 3.4338,2.08108 7.6201,7.61446 7.6201,10.07202 0,0.6022 0.3,1.28033 0.6667,1.50694 0.3666,0.22662 0.6666,1.87662 0.6666,3.66667 0,1.79005 -0.3,3.44005 -0.6666,3.66667 -0.3667,0.22661 -0.6667,0.99177 -0.6667,1.70036 0,0.70858 -0.6,1.66304 -1.3333,2.12102 -0.7334,0.45797 -1.3334,1.13631 -1.3334,1.50741 0,0.3711 -21.3,21.97314 -47.3333,48.00454 -26.0333,26.0314 -47.3333,47.74646 -47.3333,48.25572 0,0.8246 51.8774,52.5466 59.2968,59.11908 7.1147,6.30266 36.4545,36.19766 37.281,37.98652 0.5011,1.0846 1.1761,2.49294 1.5,3.12963 1.0146,1.99451 0.6444,6.81028 -0.7445,9.68495 -0.7333,1.51783 -1.3333,3.03927 -1.3333,3.38098 0,0.52636 -4.1749,4.46609 -6.3334,5.97657 -2.9155,2.04034 -11.2713,2.75903 -15.3333,1.31886 z m 227,-0.0557 c -1.2833,-0.4037 -2.7231,-1.11645 -3.1996,-1.5839 -0.4764,-0.46744 -1.243,-1.08151 -1.7034,-1.3646 -1.5628,-0.96087 -4.4303,-5.30063 -4.4303,-6.70499 0,-0.76875 -0.3,-1.58314 -0.6667,-1.80975 -0.3667,-0.22662 -0.6667,-2.46597 -0.6667,-4.97635 0,-3.45155 0.3657,-5.25332 1.5,-7.39044 0.949,-1.78799 18.8706,-20.19236 48.7879,-50.10224 l 47.2879,-47.2761 -48.1212,-48.13822 c -34.2096,-34.22169 -48.1212,-48.55738 -48.1212,-49.58809 0,-0.79743 -0.3,-1.63528 -0.6667,-1.86189 -0.3667,-0.22661 -0.6667,-2.62661 -0.6667,-5.33333 0,-2.70672 0.3,-5.10672 0.6667,-5.33334 0.3667,-0.22661 0.6667,-0.95186 0.6667,-1.61168 0,-1.47142 5.745,-7.7684 8.2939,-9.09079 2.8414,-1.47412 12.1178,-1.28848 15.4235,0.30865 2.9875,1.44342 111.0963,109.22764 112.7994,112.46067 0.56,1.06323 1.2728,2.45408 1.584,3.09077 0.9783,2.00157 0.6457,9.47213 -0.5301,11.90662 -1.2457,2.57932 -107.1237,109.01697 -111.2733,111.86154 -1.4864,1.01894 -3.7062,2.20248 -4.9328,2.63009 -2.7234,0.94938 -8.8692,0.90205 -12.0313,-0.0927 z M 166.02341,218.32561 c -5.8599,-2.82088 -8.0817,-8.38728 -5.9315,-14.86075 0.6117,-1.84168 1.5468,-3.51527 2.0779,-3.71909 0.5312,-0.20383 0.9658,-0.81884 0.9658,-1.36668 0,-0.54784 1.7835,-2.20726 3.9634,-3.68759 3.523,-2.39242 4.4006,-2.69151 7.8976,-2.69151 4.665,0 6.8834,0.98818 10.4723,4.665 2.6525,2.71742 2.6667,2.7598 2.6667,7.96354 0,5.15709 -0.039,5.27767 -2.7394,8.46819 -5.5608,6.57021 -12.6254,8.47701 -19.3728,5.22889 z m 48.3435,-43.06942 c -0.4939,-0.31301 -1.7461,-0.57371 -2.7826,-0.57932 -1.7338,-0.009 -3.4805,-1.37039 -6.2382,-4.86081 -0.4342,-0.54959 -1.0801,-2.59823 -1.4353,-4.55253 -0.5516,-3.03465 -0.4518,-3.96623 0.6841,-6.3827 1.2165,-2.58793 5.5795,-6.83476 11.8635,-11.5475 5.478,-4.10828 10.3878,-8.19807 10.877,-9.06026 0.2932,-0.51686 0.9884,-0.93974 1.5449,-0.93974 0.5565,0 2.5953,-1.275 4.5306,-2.83333 4.2219,-3.39966 9.4357,-7.15075 11.7247,-8.43543 0.9166,-0.51448 2.1166,-1.42139 2.6666,-2.01535 0.55,-0.59395 3.0182,-2.0894 5.4848,-3.32322 8.6119,-4.30781 15.8531,-2.66562 19.4348,4.40756 1.2941,2.55552 1.3465,4.41217 0.2126,7.5331 -1.4776,4.0672 -3.1039,6.61848 -4.9794,7.81166 -1.0007,0.63665 -1.9694,1.33428 -2.1528,1.55028 -0.7699,0.90708 -6.6315,4.63806 -7.2867,4.63806 -0.3923,0 -0.7133,0.27979 -0.7133,0.62174 0,0.34196 -0.5948,0.81054 -1.3218,1.04128 -0.727,0.23074 -2.602,1.59467 -4.1667,3.03095 -1.5646,1.43628 -3.4448,2.81093 -4.1781,3.05478 -0.7334,0.24384 -3.4848,2.20013 -6.1143,4.34731 -2.6295,2.14716 -4.9931,3.90394 -5.2525,3.90394 -0.445,0 -3.798,2.7485 -7.7279,6.33464 -3.6323,3.3146 -13.0077,7.3109 -14.674,6.25489 z M 315.80221,118 c -0.55,-0.35544 -1.979,-0.65085 -3.1757,-0.65646 -1.1966,-0.005 -2.8466,-0.35684 -3.6666,-0.7805 -0.8201,-0.42365 -1.9259,-0.97185 -2.4575,-1.21822 -4.5943,-2.12916 -5.5034,-13.48384 -1.3841,-17.286543 3.1329,-2.89208 3.7443,-3.25967 6.767,-4.06888 1.6043,-0.42949 3.3962,-1.02677 3.9819,-1.32729 0.5858,-0.30053 2.7608,-0.94066 4.8334,-1.42252 2.0726,-0.48186 3.7683,-1.10789 3.7683,-1.39118 0,-0.28329 0.8823,-0.51508 1.9607,-0.51508 1.0783,0 2.146,-0.3 2.3726,-0.66666 0.2267,-0.36667 1.5194,-0.67621 2.8727,-0.68787 1.3534,-0.0117 3.0192,-0.44427 3.7019,-0.96135 1.0356,-0.78441 2.6023,-1.1279 9.0921,-1.99341 0.1833,-0.0245 0.6333,-0.23155 1,-0.46021 0.3667,-0.22867 2.4488,-0.7822 4.6269,-1.23008 2.1782,-0.44787 4.4282,-1.05954 5,-1.35927 1.3413,-0.70303 9.8642,-1.97448 13.2354,-1.97448 5.3439,0 10.8964,3.12846 12.5418,7.06647 1.7993,4.30641 0.6533,9.97142 -2.6946,13.319233 -2.0168,2.01688 -7.3088,4.37148 -10.5655,4.70102 -1.9125,0.19353 -4.0773,0.59515 -4.8107,0.8925 -2.5665,1.04067 -6.8386,2.02078 -8.8082,2.02078 -1.0928,0 -2.9216,0.46627 -4.0639,1.03616 -1.8699,0.93281 -4.8596,1.65898 -11.3007,2.74485 -1.1951,0.20147 -2.3378,0.63316 -2.5394,0.95931 -0.2015,0.32616 -1.028,0.59301 -1.8365,0.59301 -0.8086,0 -3.1116,0.6 -5.1179,1.33333 -2.0063,0.73334 -4.3094,1.33334 -5.1179,1.33334 -0.8086,0 -1.6555,0.3 -1.8821,0.66666 -0.2266,0.36667 -1.1266,0.66667 -2,0.66667 -0.8734,0 -1.7734,0.3 -2,0.66667 -0.5116,0.82775 -1.0525,0.82775 -2.3334,0 z m 158.3334,-18.054393 c -4.4,-0.27805 -17.0362,-0.68564 -28.0804,-0.90576 -19.4466,-0.38759 -20.1797,-0.45048 -23.2256,-1.99254 -3.8658,-1.9571 -6.3607,-4.22849 -6.3607,-5.79084 0,-0.64778 -0.3,-1.36319 -0.6667,-1.5898 -2.1785,-1.3464 1.139,-10.4341 4.8388,-13.25488 2.0975,-1.59912 2.5646,-1.65746 15.8279,-1.97663 7.5167,-0.18088 13.9667,-0.33062 14.3333,-0.33276 6.6794,-0.0389 33.0238,1.12745 34,1.50527 9.1478,3.54036 11.6898,6.43729 11.6431,13.26906 -0.028,4.16923 -0.7592,5.5721 -4.5395,8.71511 -2.2149,1.84155 -3.4961,2.40816 -5.4455,2.40816 -1.4019,0 -2.9486,0.101513 -3.4369,0.225583 -0.4883,0.12406 -4.4878,-0.002 -8.8878,-0.279973 z"
                id="path561"/>
    </g>
</svg>