<svg xmlns="http://www.w3.org/2000/svg" width="346" height="200" viewBox="0 0 346 200" version="1.1">
    <path d="M 126.902 87.281 C 121.162 91.140, 122.128 97.897, 128.731 100.076 C 136.433 102.618, 140.538 90.948, 133.402 86.796 C 130.364 85.028, 130.240 85.037, 126.902 87.281 M 222.944 87.844 C 219.691 90.478, 219.858 95.621, 223.293 98.575 C 226.289 101.152, 229.226 100.877, 232.750 97.688 C 239.298 91.761, 229.836 82.263, 222.944 87.844 M 135.889 107.905 C 128.572 111.539, 127.600 112.250, 115.636 122.708 C 106.196 130.959, 104.079 132.622, 97.125 137.245 C 90.735 141.492, 81.335 138.793, 78.585 131.920 C 74.682 122.167, 77.286 116.669, 87.298 113.520 C 94.215 111.344, 94.507 109.733, 88.352 107.707 C 78.245 104.379, 66.800 114.662, 63.980 129.604 C 54.714 178.713, 128.549 194.693, 175.480 153.737 L 179.460 150.263 184.980 154.981 C 221.510 186.205, 280.675 184.136, 293.032 151.202 C 301.475 128.700, 286.281 101.536, 269.523 109.171 C 264.234 111.581, 264.935 116.876, 270.287 114.941 C 280.420 111.277, 287.830 132.739, 278.210 137.888 C 270.451 142.040, 262.498 139.355, 252.043 129.051 C 248.445 125.504, 245.162 122.691, 244.750 122.801 C 244.338 122.910, 244 122.564, 244 122.030 C 244 120.902, 229.896 111.108, 225.532 109.207 C 223.900 108.495, 222.236 107.381, 221.834 106.731 C 221.337 105.927, 217.166 105.541, 208.801 105.524 L 196.500 105.500 187.734 109.748 C 178.623 114.164, 176.809 114.231, 173.520 110.273 C 168.923 104.740, 145.256 103.251, 135.889 107.905"
          stroke="none" fill="#fb441c" fill-rule="evenodd"/>
    <path d="M 110.986 22.517 C 109.696 24.072, 111.205 28.216, 115.895 36 C 127.070 54.545, 127.446 56.196, 121.250 59.498 C 113.234 63.772, 105.459 69.754, 99.133 76.517 C 86.471 90.053, 77.058 107.436, 82.750 106.772 C 91.573 105.743, 95.150 111.050, 87.298 113.520 C 77.286 116.669, 74.682 122.167, 78.585 131.920 C 81.335 138.793, 90.735 141.492, 97.125 137.245 C 104.079 132.622, 106.196 130.959, 115.636 122.708 C 133.053 107.484, 137.997 105, 150.886 105 C 159.924 105, 171.350 107.662, 173.520 110.273 C 176.809 114.231, 178.623 114.164, 187.734 109.748 L 196.500 105.500 208.801 105.524 C 217.166 105.541, 221.337 105.927, 221.834 106.731 C 222.236 107.381, 223.900 108.495, 225.532 109.207 C 229.896 111.108, 244 120.902, 244 122.030 C 244 122.564, 244.338 122.910, 244.750 122.801 C 245.162 122.691, 248.445 125.504, 252.043 129.051 C 262.498 139.355, 270.451 142.040, 278.210 137.888 C 287.830 132.739, 280.420 111.277, 270.287 114.941 C 266.280 116.390, 265.539 115.971, 266.356 112.718 C 267.037 110.005, 270.730 108, 275.047 108 C 278.780 108, 278.758 107.027, 274.841 98.985 C 267.413 83.736, 252.116 67.543, 236.750 58.661 C 230.819 55.233, 230.622 56.517, 239.500 40.726 C 248.571 24.592, 249.479 18.960, 242.582 21.607 C 241.712 21.941, 241 22.841, 241 23.607 C 241 24.373, 240.550 25, 240 25 C 239.450 25, 239 25.675, 239 26.500 C 239 27.325, 238.629 28, 238.176 28 C 237.722 28, 236.058 30.813, 234.478 34.250 C 232.897 37.688, 231.071 41.041, 230.421 41.703 C 229.770 42.364, 228.396 44.950, 227.369 47.449 C 225.354 52.348, 224.386 52.768, 220.156 50.581 C 208.209 44.403, 178.780 41.393, 161.500 44.582 C 147.889 47.095, 145.667 47.645, 140.213 49.856 C 133.303 52.658, 133.599 52.739, 130.706 47.250 C 117.481 22.155, 114.446 18.348, 110.986 22.517 M 126.902 87.281 C 121.162 91.140, 122.128 97.897, 128.731 100.076 C 136.433 102.618, 140.538 90.948, 133.402 86.796 C 130.364 85.028, 130.240 85.037, 126.902 87.281 M 222.944 87.844 C 219.691 90.478, 219.858 95.621, 223.293 98.575 C 226.289 101.152, 229.226 100.877, 232.750 97.688 C 239.298 91.761, 229.836 82.263, 222.944 87.844"
          stroke="none" fill="#040404" fill-rule="evenodd"/>
</svg>