<svg
        version="1.1"
        id="svg1426"
        width="1024"
        height="1024"
        viewBox="0 0 1024 1024"
        xmlns="http://www.w3.org/2000/svg">
    <defs id="defs1430"/>
    <g id="g1432">
        <path
                style="fill:#030303;stroke:none"
                d="m 494.996,115.617 c -14.237,3.787 -13.665,21.624 -0.996,26.75 14.154,5.726 37.659,2.24 53.015,2.626 6.459,0.162 12.715,1.843 18.985,-0.556 13.253,-5.071 11.929,-21.725 -1,-26.188 -14.493,-5.002 -33.814,-3.25 -49,-3.249 -6.404,0 -14.806,-1.032 -21.004,0.617 m -70.957,6.861 c -14.203,2.5 -28.21,6.817 -42.039,10.813 -6.039,1.745 -13.801,2.854 -18.895,6.701 -13.263,10.018 -1.106,26.05 12.61,24.772 13.863,-1.292 28.17,-8.02 41.861,-11.01 7.408,-1.618 17.069,-1.969 23.24,-6.746 16.754,-12.971 -1.879,-27.151 -16.777,-24.53 M 621,132.703 c -16.998,2.485 -13.482,23.383 -1,29.05 42.331,19.219 82.704,33.601 120,62.671 101.399,79.036 156.465,210.989 137.579,338.576 -8.817,59.563 -31.866,108.297 -63.184,159 -5.566,9.012 -7.359,27.397 7.605,27.863 16.978,0.528 28.377,-28.565 35.175,-40.863 25.326,-45.815 42.7,-91.896 50.246,-144 C 928.28,420.956 861.65,273.656 744,189.579 717.035,170.308 687.68,155.873 657,143.6 c -9.819,-3.927 -25.225,-12.473 -36,-10.897 m -307,32.051 c -8.083,-0.317 -14.624,4.249 -21,8.59 -13.826,9.412 -31.608,20.02 -42.467,32.83 -6.278,7.406 -3.31,21.637 7.467,22.713 16.67,1.665 35.273,-19.774 48,-28.743 5.479,-3.86 12.192,-6.896 16.442,-12.234 6.7,-8.417 3.719,-22.679 -8.442,-23.156 m -103,82.949 c -19.553,6.606 -13.879,37.857 7,30.327 19.553,-7.052 13.649,-37.303 -7,-30.327 m -35,54.805 C 159.083,304.876 149.664,337.224 143.719,351 120.141,405.639 110,460.722 110,520 c 0,166.148 115.786,320.757 275,368.72 32.567,9.811 65.97,16.827 100,18.319 11.775,0.517 26.715,3.736 37.96,-1.267 15.704,-6.986 5.787,-26.317 -7.96,-27.667 -14.902,-1.463 -30.048,-0.827 -45,-2.275 C 433.991,872.343 398.576,863.108 365,849.796 268.863,811.68 190.922,727.549 158.004,630 145.775,593.761 142.752,557.639 139.17,520 c -4.767,-50.091 10.036,-107.201 29.254,-153 6.383,-15.209 15.199,-29.067 21.928,-44 4.257,-9.447 -3.4,-22.025 -14.352,-20.492 m 391,30.021 c -10.404,2.405 -14.332,11.414 -17.681,20.471 -6.173,16.693 -12.462,33.348 -18.743,50 -27.751,73.575 -54.047,147.809 -82.779,221 -5.5,14.012 -17.097,33.786 -16.667,49 0.337,11.949 10.619,22.359 22.87,20.695 11.645,-1.581 15.7,-10.905 19.424,-20.695 6.468,-17.002 13.595,-33.82 19.576,-51 26.057,-74.85 55.602,-148.834 83.576,-223 5.297,-14.041 15.616,-31.831 15.406,-47 C 591.797,338.746 579.98,329.53 567,332.529 M 295,513 382,426 c 9.67,-9.67 28.796,-22.031 23.03,-38 -4.579,-12.683 -21.699,-17.488 -32.03,-8.786 -30.411,25.614 -57.871,56.657 -86,84.786 -11.177,11.177 -30.521,24.491 -37.03,39 -7.577,16.889 8.508,28.478 19.03,39 27.648,27.648 56.287,54.421 84,82.001 10.432,10.381 23.749,30.079 41,22.632 21.455,-9.262 9.066,-28.567 -2,-39.633 -19.182,-19.182 -38.823,-37.823 -58,-57 -12.463,-12.463 -24.542,-26.825 -39,-37 m 435,-2 -87,87 c -10.179,10.179 -27.849,22.305 -20.633,39 9.407,21.762 31.1,6.533 41.633,-4 l 77,-77 c 10.564,-10.564 27.834,-22.581 34.543,-36 8.235,-16.469 -11.692,-30.149 -21.543,-40 l -83,-83 c -10.093,-10.093 -21.536,-26.919 -38,-20.867 -14.286,5.252 -15.384,22.862 -5.957,32.867 20.976,22.261 43.328,43.371 64.957,65 12.141,12.141 23.963,27.112 38,37 m 53,253.519 c -8.515,1.844 -14.598,8.792 -21,14.206 -11.006,9.307 -28.052,17.514 -36.347,29.29 -7.096,10.074 -0.438,23.807 12.347,22.187 7.224,-0.915 13.302,-5.893 19,-10.086 13.067,-9.616 30.826,-20.893 40.347,-34.155 7.768,-10.82 -1.845,-24.15 -14.347,-21.442 m -98,72.013 c -12.892,3.066 -25.609,12.059 -38,17.019 -7.198,2.882 -16.784,4.8 -22.696,10.006 -13.111,11.546 -0.822,26.282 13.696,24.142 15.369,-2.265 32.214,-12.053 46,-18.946 5.36,-2.68 12.506,-4.805 16.867,-8.978 12.186,-11.658 -2.239,-26.483 -15.867,-23.243 m -111,40.182 c -21.621,0.44 -22.915,29.7 -1,29.572 21.469,-0.126 22.353,-30.005 1,-29.572 z"
                id="path1553"/>
    </g>
</svg>